Coordinates
version=1
nRows=7
nColumns=40
inDegrees=yes

Units are S.I. units (second, meters, Newtons, ...)
If the header above contains a line with 'inDegrees', this indicates whether rotational values are in degrees (yes) or radians (no).

endheader
time	pelvis_tilt	pelvis_list	pelvis_rotation	pelvis_tx	pelvis_ty	pelvis_tz	hip_flexion_r	hip_adduction_r	hip_rotation_r	knee_angle_r	knee_angle_r_beta	ankle_angle_r	subtalar_angle_r	mtp_angle_r	hip_flexion_l	hip_adduction_l	hip_rotation_l	knee_angle_l	knee_angle_l_beta	ankle_angle_l	subtalar_angle_l	mtp_angle_l	lumbar_extension	lumbar_bending	lumbar_rotation	arm_flex_r	arm_add_r	arm_rot_r	elbow_flex_r	pro_sup_r	wrist_flex_r	wrist_dev_r	arm_flex_l	arm_add_l	arm_rot_l	elbow_flex_l	pro_sup_l	wrist_flex_l	wrist_dev_l
      0.00000000	     -8.02836274	      4.73263980	      4.02000246	     -0.16623568	      1.02163300	      0.59525720	     -7.13066776	     -2.38272229	     -1.82593382	     55.29012713	      0.96499476	    -14.25363769	      0.00000000	      0.00000000	     28.52982477	      8.50809022	     -1.00467611	      6.71133568	      0.11713490	      4.91733155	      0.00000000	      0.00000000	     -1.47628544	     -6.49830987	      8.49224141	     -3.41885131	    -15.29722422	     26.09354836	     91.82477374	     35.33236453	      0.00000000	      0.00000000	    -35.26721635	    -18.23776314	     10.66311315	     95.68408691	     40.70962372	      0.00000000	      0.00000000
      0.00500000	     -7.64999958	      4.89302339	      4.17986861	     -0.15116432	      1.01956821	      0.59493662	     -6.76091240	     -2.66785730	     -2.11012911	     57.50780833	      1.00370060	    -13.97503295	      0.00000000	      0.00000000	     28.05761427	      8.71720271	     -0.45064815	      7.29252643	      0.12727860	      5.03210360	      0.00000000	      0.00000000	     -1.96314536	     -6.77215213	      8.02388278	     -3.04918518	    -15.40649390	     24.44529386	     86.23367512	     58.43744487	      0.00000000	      0.00000000	    -34.45462690	    -18.20165189	      6.87856206	     91.46336052	     59.57559976	      0.00000000	      0.00000000
      0.01000000	     -7.03861641	      5.31262246	      4.21116721	     -0.13640808	      1.01749161	      0.59470282	     -6.59720065	     -3.39377476	     -2.62162677	     59.85024360	      1.04458381	    -13.51301835	      0.00000000	      0.00000000	     27.35384737	      9.15119323	     -0.14598629	      8.01914151	      0.13996042	      5.45491555	      0.00000000	      0.00000000	     -2.87095400	     -7.30597336	      7.64263357	     -3.19266548	    -15.17664125	     24.59723071	     85.45715397	     58.36371370	      0.00000000	      0.00000000	    -33.78237806	    -18.60443646	      6.96459244	     91.28832208	     59.55624067	      0.00000000	      0.00000000
      0.01500000	     -6.63267744	      5.47429251	      4.56447508	     -0.12116686	      1.01487929	      0.59411337	     -6.19727264	     -3.80608451	     -3.30609473	     62.11613565	      1.08413109	    -13.29421693	      0.00000000	      0.00000000	     26.85276301	      9.44227850	      0.59020195	      8.87189441	      0.15484377	      5.71433623	      0.00000000	      0.00000000	     -3.48061802	     -7.58983555	      7.11860482	     -3.45948580	    -15.00868447	     24.65939451	     84.66029044	     58.26915128	      0.00000000	      0.00000000	    -33.11217026	    -18.57312280	      6.98202275	     90.94738451	     59.49762694	      0.00000000	      0.00000000
      0.02000000	     -6.32818284	      5.77843419	      4.52104840	     -0.10619044	      1.01197147	      0.59402129	     -5.53143090	     -4.42142105	     -3.44810972	     64.66257545	      1.12857484	    -11.77428065	      0.00000000	      0.00000000	     26.56572277	      9.70701316	      0.75583909	     10.02892117	      0.17503769	      6.04536098	      0.00000000	      0.00000000	     -3.86729085	     -7.99593187	      6.96661416	     -3.48697878	    -14.59576151	     24.68553671	     82.74111454	     58.04231373	      0.00000000	      0.00000000	    -32.27539205	    -18.35102148	      7.01867485	     90.10479533	     59.37528855	      0.00000000	      0.00000000
      0.02500000	     -5.78135207	      6.07945532	      4.99627943	     -0.09186070	      1.00924406	      0.59263436	     -5.26648991	     -5.01226852	     -4.18698874	     66.91791434	      1.16793793	    -11.61048832	      0.00000000	      0.00000000	     26.15786884	     10.21812879	      1.18353841	     11.52254148	      0.20110629	      5.42601572	      0.00000000	      0.00000000	     -4.72548658	     -8.32028213	      6.05260663	     -3.65047761	    -14.56370340	     24.73957792	     82.05738528	     57.95902908	      0.00000000	      0.00000000	    -31.52491429	    -18.56963559	      7.08819864	     89.86197926	     59.34015237	      0.00000000	      0.00000000
      0.03000000	     -5.36346532	      6.60883458	      5.09670178	     -0.07672731	      1.00598762	      0.59246816	     -4.84697291	     -5.81278492	     -4.48271128	     69.29431580	      1.20941396	    -10.58618906	      0.00000000	      0.00000000	     25.82793572	     10.70233495	      0.93152419	     13.02889011	      0.22739703	      4.71523920	      0.00000000	      0.00000000	     -5.36173383	     -9.00872773	      5.64396420	     -3.79665370	    -14.27667933	     24.93640730	     80.84165491	     57.81505612	      0.00000000	      0.00000000	    -30.76841486	    -18.57515843	      7.15091490	     89.34540916	     59.26188528	      0.00000000	      0.00000000
